<svg xmlns="http://www.w3.org/2000/svg" version="1.1" xmlns:xlink="http://www.w3.org/1999/xlink" xmlns:svgjs="http://svgjs.dev/svgjs" width="2000" height="904" viewBox="0 0 2000 904"><g transform="matrix(1,0,0,1,-1.2121212121212466,-0.4617352118925169)"><svg viewBox="0 0 396 179" data-background-color="#121212" preserveAspectRatio="xMidYMid meet" height="904" width="2000" xmlns="http://www.w3.org/2000/svg" xmlns:xlink="http://www.w3.org/1999/xlink"><g id="tight-bounds" transform="matrix(1,0,0,1,0.2400000000000091,0.09142765810703679)"><svg viewBox="0 0 395.52 178.81714468378593" height="178.81714468378593" width="395.52"><g><svg viewBox="0 0 395.52 178.81714468378593" height="178.81714468378593" width="395.52"><g><svg viewBox="0 0 395.52000000000004 178.81714468378595" height="178.81714468378593" width="395.52"><g transform="matrix(1,0,0,1,0,110.51616920263645)"><svg viewBox="0 0 395.52000000000004 68.3009754811495" height="68.3009754811495" width="395.52000000000004"><g id="textblocktransform"><svg viewBox="0 0 395.52000000000004 68.3009754811495" height="68.3009754811495" width="395.52000000000004" id="textblock"><g><svg viewBox="0 0 395.52000000000004 68.3009754811495" height="68.3009754811495" width="395.52000000000004"><g transform="matrix(1,0,0,1,0,0)"><svg width="395.52000000000004" viewBox="-12.5 -32 189.64 32.75" height="68.3009754811495" data-palette-color="#ffffff"><path d="M30.6-8L29.2 0 10.2 0 15.7-31.25 25.2-31.25 21.1-8 30.6-8ZM9.1-2.4L8.7-0.15-12.5-2.4 9.1-2.4ZM10.8-12.05L10.4-9.8-10.8-12.05 10.8-12.05ZM11.65-16.85L11.25-14.6-9.95-16.85 11.65-16.85ZM12.5-21.65L12.1-19.4-9.1-21.65 12.5-21.65ZM13.3-26.45L12.95-24.2-8.25-26.45 13.3-26.45ZM9.95-7.25L9.55-5-11.65-7.25 9.95-7.25ZM14.15-31.25L13.75-29-7.4-31.25 14.15-31.25ZM50.9-7.8L54.85-7.8Q56.8-7.8 57.75-8.28 58.7-8.75 59-10.45L59-10.45 61.3-23.45 57.3-23.45Q55.4-23.45 54.45-22.98 53.5-22.5 53.2-20.8L53.2-20.8 50.9-7.8ZM58.95-32L58.95-32Q65.3-32 68-29.53 70.7-27.05 70.7-21.9 70.7-16.75 69.07-11.13 67.45-5.5 63.92-2.38 60.4 0.75 53.62 0.75 46.85 0.75 44.15-1.73 41.45-4.2 41.45-9.35L41.45-9.35Q41.45-11.8 42.15-15.83 42.85-19.85 44-22.78 45.15-25.7 47.1-27.85L47.1-27.85Q50.85-32 58.95-32ZM40.85-16.85L40.7-15.85Q40.6-15.45 40.5-14.75L40.5-14.75 20.85-16.85 40.85-16.85ZM20.3-12.05L40.15-12.05Q40-10.9 40-9.95L40-9.95 20.3-12.05ZM22.05-21.65L42.05-21.65 41.45-19.6 22.05-21.65ZM20.95-7.25L40.05-7.25Q40.25-5.85 40.4-5.15L40.4-5.15 20.95-7.25ZM24.4-26.45L44.1-26.45Q43.4-25.15 43.1-24.45L43.1-24.45 24.4-26.45ZM25.75-2.4L41.55-2.4Q42.2-1.25 43.05-0.55L43.05-0.55 25.75-2.4ZM31.3-31.25L48.85-31.25Q47.4-30.35 46.6-29.6L46.6-29.6 31.3-31.25ZM84.14-21.65L83.75-19.4 62.55-21.65 84.14-21.65ZM83.3-16.85L82.89-14.6 61.74-16.85 83.3-16.85ZM85.84-31.25L85.44-29 64.3-31.25 85.84-31.25ZM84.59-24.2L63.45-26.45 85-26.45 84.59-24.2ZM61.05-12.05L82.44-12.05Q82.25-10.4 82.19-9.8L82.19-9.8 61.05-12.05ZM61.09-7.25L82.09-7.25Q82.09-6.05 82.25-5L82.25-5 61.09-7.25ZM63.39-2.4L82.94-2.4Q83.59-1 84.55-0.15L84.55-0.15 63.39-2.4ZM92.75-7.8L96.14-7.8Q97.89-7.8 98.64-8.28 99.39-8.75 99.69-10.45L99.69-10.45 103.39-31.25 112.9-31.25 109.8-13.7Q109.05-9.45 108.07-6.85 107.09-4.25 105.34-2.45 103.59-0.65 101.02 0.05 98.44 0.75 94.5 0.75L94.5 0.75Q88.44 0.75 86.02-1.07 83.59-2.9 83.59-7.35L83.59-7.35Q83.59-9.8 84.3-13.7L84.3-13.7 87.39-31.25 96.89-31.25 92.75-7.8ZM132.24 0L122.74 0 128.24-31.25 137.74-31.25 132.24 0ZM121.64-2.4L121.24-0.15 100.04-2.4 121.64-2.4ZM123.34-12.05L122.94-9.8 101.74-12.05 123.34-12.05ZM124.19-16.85L123.79-14.6 102.59-16.85 124.19-16.85ZM125.04-21.65L124.64-19.4 103.44-21.65 125.04-21.65ZM125.84-26.45L125.49-24.2 104.29-26.45 125.84-26.45ZM122.49-7.25L122.09-5 100.89-7.25 122.49-7.25ZM126.69-31.25L126.29-29 105.14-31.25 126.69-31.25ZM150.64-19.4L150.64-19.4 129.44-21.65 150.99-21.65Q150.74-20.65 150.64-19.4ZM130.84-26.45L152.34-26.45 151.59-24.25 130.84-26.45ZM129.89-16.85L150.64-16.85Q150.74-15.5 151.04-14.6L151.04-14.6 129.89-16.85ZM157.64-9.8L157.64-9.8 131.19-12.05 152.74-12.05Q154.39-10.45 157.64-9.8ZM134.59-31.25L156.09-31.25Q154.94-30.5 153.89-29.2L153.89-29.2 134.59-31.25ZM148.29-5.05L130.34-7.25 149.04-7.25 148.29-5.05ZM146.69-0.2L129.49-2.4 147.44-2.4 146.69-0.2ZM148.39-0.55L151.19-8.8Q155.39-7.65 158.87-7.65 162.34-7.65 164.54-7.95L164.54-7.95 164.94-10.45 160.79-10.85Q156.04-11.3 154.06-13 152.09-14.7 152.09-17.8L152.09-17.8Q152.09-19.15 152.39-20.8L152.39-20.8Q153.54-27.2 156.59-29.6 159.64-32 165.97-32 172.29-32 177.14-30.75L177.14-30.75 174.54-22.75Q170.19-23.5 167.56-23.5 164.94-23.5 163.04-23.25L163.04-23.25 162.64-20.8 165.99-20.45Q171.09-19.9 173.24-18.03 175.39-16.15 175.39-13L175.39-13Q175.39-9.8 174.04-6.4L174.04-6.4Q173.29-4.65 172.47-3.48 171.64-2.3 170.37-1.48 169.09-0.65 168.04-0.23 166.99 0.2 165.34 0.4L165.34 0.4Q163.04 0.75 159.64 0.75L159.64 0.75Q153.44 0.75 148.39-0.55L148.39-0.55Z" opacity="1" transform="matrix(1,0,0,1,0,0)" fill="#ffffff" class="wordmark-text-0" data-fill-palette-color="primary" id="text-0"></path></svg></g></svg></g></svg></g></svg></g><g transform="matrix(1,0,0,1,126.21427775800522,0)"><svg viewBox="0 0 143.0914444839896 94.3919481149486" height="94.3919481149486" width="143.0914444839896"><g><svg xmlns="http://www.w3.org/2000/svg" xmlns:xlink="http://www.w3.org/1999/xlink" version="1.1" x="8" y="0" viewBox="7.5 18.435 85.001 63.131" enable-background="new 0 0 100 100" xml:space="preserve" height="94.3919481149486" width="127.09144448398959" class="icon-icon-0" data-fill-palette-color="accent" id="icon-0"><g fill="#ffffff" data-fill-palette-color="accent"><path d="M89.405 18.435H10.595c-1.706 0-3.095 1.389-3.095 3.095v56.941c0 1.706 1.389 3.095 3.095 3.095h78.811c1.707 0 3.095-1.389 3.095-3.095V77.14 32.027 21.529C92.5 19.823 91.112 18.435 89.405 18.435zM10.595 19.673h78.811c1.023 0 1.857 0.833 1.857 1.856v9.075c-0.068-0.01-0.136-0.021-0.207-0.021H8.951c-0.073 0-0.143 0.011-0.213 0.021v-9.076C8.738 20.506 9.571 19.673 10.595 19.673zM91.263 77.14c0 0.114-0.093 0.206-0.207 0.206H8.951c-0.113 0-0.206-0.092-0.206-0.206V32.027c0-0.113 0.093-0.206 0.206-0.206h82.104c0.114 0 0.207 0.093 0.207 0.206V77.14zM89.405 80.327H10.595c-0.992 0-1.798-0.784-1.848-1.764 0.067 0.01 0.135 0.021 0.204 0.021h82.104c0.068 0 0.133-0.011 0.197-0.02C91.202 79.544 90.396 80.327 89.405 80.327z" fill="#ffffff" data-fill-palette-color="accent"></path><path d="M28.178 27.787c1.45 0 2.63-1.18 2.63-2.63 0-1.451-1.18-2.631-2.63-2.631s-2.631 1.18-2.631 2.631C25.547 26.607 26.728 27.787 28.178 27.787zM28.178 23.765c0.768 0 1.393 0.624 1.393 1.393 0 0.768-0.625 1.393-1.393 1.393-0.769 0-1.393-0.625-1.393-1.393C26.785 24.389 27.409 23.765 28.178 23.765z" fill="#ffffff" data-fill-palette-color="accent"></path><path d="M21.458 27.787c1.451 0 2.631-1.18 2.631-2.63 0-1.451-1.18-2.631-2.631-2.631-1.45 0-2.63 1.18-2.63 2.631C18.828 26.607 20.008 27.787 21.458 27.787zM21.458 23.765c0.769 0 1.393 0.624 1.393 1.393 0 0.768-0.624 1.393-1.393 1.393-0.768 0-1.393-0.625-1.393-1.393C20.065 24.389 20.69 23.765 21.458 23.765z" fill="#ffffff" data-fill-palette-color="accent"></path><path d="M14.738 27.787c1.451 0 2.631-1.18 2.631-2.63 0-1.451-1.18-2.631-2.631-2.631-1.45 0-2.63 1.18-2.63 2.631C12.108 26.607 13.288 27.787 14.738 27.787zM14.738 23.765c0.769 0 1.393 0.624 1.393 1.393 0 0.768-0.624 1.393-1.393 1.393-0.768 0-1.393-0.625-1.393-1.393C13.346 24.389 13.971 23.765 14.738 23.765z" fill="#ffffff" data-fill-palette-color="accent"></path></g><path d="M26.598 65.915c-0.624 0-1.395-0.429-2.289-1.276-1.605-1.519-2.16-2.371-1.2-3.405l8.79-8.811-8.774-8.782c-0.676-0.676-0.57-1.195-0.401-1.57 0.242-0.544 0.814-1.117 1.479-1.781 0.829-0.829 1.542-1.542 2.241-1.542 0.342 0 0.679 0.172 1.033 0.526l11.769 11.755c0.311 0.254 0.521 0.659 0.564 1.134 0.048 0.537-0.134 1.152-0.452 1.533L27.53 65.514C27.243 65.787 26.941 65.915 26.598 65.915zM23.846 42.57c-0.009 0 0.027 0.068 0.154 0.194l9.211 9.221c0.241 0.242 0.241 0.633 0 0.875L24 62.093c-0.093 0.1-0.125 0.147-0.133 0.166 0.012 0.047 0.125 0.377 1.292 1.48 0.979 0.927 1.42 0.938 1.438 0.938v0.619l0.01-0.62c-0.001 0.001-0.001 0.001-0.001 0.001-0.003 0 0.02-0.012 0.061-0.05l11.777-11.767c0.061-0.077 0.151-0.357 0.131-0.589-0.013-0.145-0.063-0.246-0.162-0.328L26.601 40.148c-0.144-0.143-0.215-0.171-0.215-0.171-0.182 0.06-0.886 0.764-1.307 1.184-0.531 0.532-1.077 1.078-1.227 1.413C23.85 42.571 23.848 42.57 23.846 42.57z" fill="#ffffff" data-fill-palette-color="accent"></path><path d="M55.834 71.436H40.498c-1.594 0-1.92-1.234-1.92-3.088s0.326-3.088 1.92-3.088h15.336c1.503 0 1.787 1.085 1.787 3.088C57.621 70.396 57.346 71.436 55.834 71.436zM40.498 66.497c-0.366 0-0.683 0-0.683 1.851s0.316 1.851 0.683 1.851h15.336c0.354 0 0.55 0 0.55-1.851s-0.219-1.851-0.55-1.851H40.498z" fill="#ffffff" data-fill-palette-color="accent"></path></svg></g></svg></g><g><rect width="126.2142777580052" height="6.159452455496758" y="87.23249565945184" x="269.30572224199483" fill="#ffffff" data-fill-palette-color="accent"></rect><rect width="126.2142777580052" height="6.159452455496758" y="87.23249565945184" x="2.842170943040401e-14" fill="#ffffff" data-fill-palette-color="accent"></rect><rect width="126.2142777580052" height="6.159452455496758" y="74.91359074845833" x="269.30572224199483" fill="#ffffff" data-fill-palette-color="accent"></rect><rect width="126.2142777580052" height="6.159452455496758" y="74.91359074845833" x="2.842170943040401e-14" fill="#ffffff" data-fill-palette-color="accent"></rect></g></svg></g></svg></g><defs></defs></svg><rect width="395.52" height="178.81714468378593" fill="none" stroke="none" visibility="hidden"></rect></g></svg></g></svg>